<svg xmlns="http://www.w3.org/2000/svg" viewBox="0 0 512 512"><path d="M146.378 438.81c0 40.421-32.768 73.189-73.19 73.189C32.768 511.999 0 479.23 0 438.809c0-40.421 32.768-73.19 73.19-73.19 40.421 0 73.188 32.77 73.188 73.19zm200.754 54C337.585 316.123 196.064 174.424 19.19 164.866 8.75 164.303 0 172.691 0 183.147v54.935c0 9.617 7.417 17.682 17.014 18.306 127.808 8.325 230.254 110.516 238.596 238.596.625 9.597 8.69 17.014 18.306 17.014h54.936c10.456 0 18.845-8.749 18.28-19.189zm164.856.328C502.395 225.916 287.388 9.652 18.861.012 8.54-.358 0 7.979 0 18.304V73.24c0 9.857 7.811 17.88 17.66 18.285 218.49 8.958 393.86 184.36 402.817 402.815.404 9.85 8.427 17.661 18.285 17.661h54.935c10.324-.001 18.661-8.542 18.291-18.862z" style="fill:#a40;stroke-width:1.14285"/></svg>
