<svg xmlns="http://www.w3.org/2000/svg" viewBox="0 0 512 512"><circle cx="256" cy="256" r="235.716" style="fill:green;stroke:green;stroke-width:40.5684;stroke-linecap:round;stroke-linejoin:round"/><path stroke-width="2" d="M261.315 57.175c15.82 15.08 14.992 41.633 14.992 41.633s-26.484 2.099-42.313-12.99c-15.82-15.08-14.982-41.634-14.982-41.634s26.484-2.09 42.303 12.99zM177.6 177.924c28.09 20.924 31.935 63.326 31.935 63.326s-41.722 8.476-69.822-12.448c-28.1-20.925-31.934-63.327-31.934-63.327s41.74-8.456 69.82 12.449zm159.728 209.503c-41.948 13.325-84.921-15.416-84.921-15.416s25.064-50.345 67.022-63.68c41.948-13.336 84.902 15.414 84.902 15.414s-25.084 50.336-67.003 63.672z" style="fill:none;stroke:#fff;stroke-width:17;stroke-linecap:round;stroke-linejoin:round;stroke-miterlimit:4;stroke-dasharray:none;stroke-opacity:1"/><path stroke-width="2" d="M393.186 208.967c-33.235 9.54-66.352-13.977-66.352-13.977s20.796-38.99 54.041-48.532c33.246-9.56 66.353 13.976 66.353 13.976s-20.817 38.982-54.042 48.533z" style="fill:none;stroke:#fff;stroke-width:17;stroke-linecap:round;stroke-linejoin:round;stroke-miterlimit:4;stroke-dasharray:none"/><path stroke-width="18.195" d="M284.212 154.352c0 43.466-26.267 91.515-44.403 119.507-7.402 11.433-15.819 22.077-24.591 32.486-23.428 27.775-47.517 74.76-35.256 144.384" style="fill:none;stroke:#fff;stroke-linecap:round;stroke-linejoin:round"/></svg>