<svg xmlns="http://www.w3.org/2000/svg" viewBox="0 0 512 512"><g style="fill:none;fill-rule:nonzero;stroke:none;stroke-width:1" transform="scale(15.72481)"><circle cx="16.28" cy="16.28" r="16.28" style="fill:#29abe0"/><path d="M22.258 8.8h1.608c3.1 0 5.614 2.514 5.614 5.614v.33a5.615 5.615 0 0 1-5.614 5.615h-1.608v1.69a2.591 2.591 0 0 1-2.591 2.591H7.43a2.591 2.591 0 0 1-2.591-2.591V10.096c0-.716.58-1.296 1.296-1.296Zm0 2.997v5.565h1.466a2.783 2.783 0 1 0 0-5.565z" style="fill:#fff"/></g><path d="M207.565 221.358c6.292-18.412 21.217-27.628 44.754-27.628 35.302 0 48.404 43.93 29.88 72.648-12.329 19.149-37.207 43.367-74.63 72.653-37.426-29.286-62.304-53.504-74.649-72.653-18.509-28.713-5.406-72.653 29.896-72.653 23.537 0 38.461 9.216 44.749 27.633z" style="fill:#ff5e5b;fill-rule:nonzero;stroke:none;stroke-width:15.7249"/></svg>
