<svg xmlns="http://www.w3.org/2000/svg" viewBox="0 0 512 512"><g transform="matrix(3.78096 0 0 3.77664 -321.146 -337.57)"><circle cx="152.671" cy="157.117" r="65.161" style="opacity:1;fill:#000;fill-opacity:1;stroke:#000;stroke-width:5.1444;stroke-linejoin:miter;stroke-miterlimit:4;stroke-dasharray:none;stroke-opacity:1"/><path d="m80 35.6 4.3 1.2c.3.1.5.3.5.5l1.2 4.3c.2.7 1.3.7 1.5 0l1.2-4.3c.1-.3.3-.5.5-.5l4.3-1.2c.7-.2.7-1.3 0-1.5l-4.3-1.2c-.3-.1-.5-.3-.5-.5L87.5 28c-.2-.7-1.3-.7-1.5 0l-1.2 4.3c-.1.3-.3.5-.5.5L80 34.1c-.8.2-.8 1.3 0 1.5zM65.3 85.3 61 84.1c-.3-.1-.5-.3-.5-.5l-1.2-4.3c-.2-.7-1.3-.7-1.5 0l-1.2 4.3c-.1.3-.3.5-.5.5l-4.3 1.2c-.7.2-.7 1.3 0 1.5L56 88c.3.1.5.3.5.5l1.2 4.3c.2.7 1.3.7 1.5 0l1.2-4.3c.1-.3.3-.5.5-.5l4.3-1.2c.8-.2.8-1.2.1-1.5ZM16.6 14.7l4.3 1.2c.3.1.5.3.5.5l1.2 4.3c.2.7 1.3.7 1.5 0l1.2-4.3c.1-.3.3-.5.5-.5l4.3-1.2c.7-.2.7-1.3 0-1.5L25.9 12c-.3-.1-.5-.3-.5-.5l-1.2-4.3c-.2-.7-1.3-.7-1.5 0l-1.2 4.3c-.1.3-.3.5-.5.5l-4.3 1.2c-.9.2-.9 1.2-.1 1.5zM21 72.9l-5 5c-1 1-1 2.5 0 3.5s2.5 1 3.5 0l5-5c1-1 1-2.5 0-3.5s-2.6-1-3.5 0zm-2.9-6.4c-1-1-2.5-1-3.5 0l-7.9 7.9c-1 1-1 2.5 0 3.5s2.5 1 3.5 0l7.9-8c1-.8 1-2.4 0-3.4zm-6.4-2.8c1-1 1-2.5 0-3.5s-2.5-1-3.5 0l-5 5c-1 1-1 2.5 0 3.5s2.5 1 3.5 0zm41.9-5.6-.5-1.3 10.7-10.7c4.4-4.4 7.1-10.2 7.5-16.4l.9-12.2c.2-2.9-2.2-5.4-5.2-5.2l-12.2.9c-6.2.5-12 3.1-16.4 7.5L27.8 31.5l-1.3-.5c-4.8-1.8-10.2-.3-13.5 3.6l-7.6 8.9c-1.1 1.3-.6 3.2 1 3.8 3.9 1.4 7.5 3.3 10.8 5.7L15 55.2c-.8.8-.8 2.2 0 3l11.4 11.4c.8.8 2.2.8 3 0l2.2-2.2c2.4 3.3 4.3 7 5.7 10.8.6 1.6 2.5 2.1 3.8 1l9-7.6c3.8-3.3 5.3-8.7 3.5-13.5zM43.3 41.3c-2.8-2.8-2.8-7.3 0-10.1s7.3-2.8 10.1 0 2.8 7.3 0 10.1c-2.7 2.8-7.3 2.8-10.1 0zm37.9 8.1c-9 0-16.3 7.3-16.3 16.3S72.2 82 81.2 82s16.3-7.3 16.3-16.3-7.3-16.3-16.3-16.3zm0 29.2c-2.5 0-4.9-.7-6.9-2l.7-3.1c.2-.8.1-1.5-.2-2.2l-1-2.2c-.1-.2-.3-.4-.6-.5l-3.6-.5c-.3-.1-.5-.5-.3-.7l.6-.7c.2-.2.4-.3.7-.3l1.4.2h.5l1.8-.4c.1 0 .1 0 .2-.1l1.2-.6c.2-.1.4-.3.4-.6l.5-3.6c0-.4-.2-.7-.5-.8l-.6-.2c-.3-.1-.5-.4-.5-.7 0-.4.3-.8.7-.8l.9-.1c.4 0 .7-.4.7-.8l-.1-1.1-.1-2.2c0-.3-.2-.6-.5-.7l-.5-.2c1.6-.7 3.3-1 5.1-1 1 0 2 .1 2.9.3l.1 1.9v.1l-.3 2.4c0 .1 0 .2.1.2l.3.4c.1.2.4.2.5.1l.7-.7c.2-.2.5-.1.6.2v.1c0 .1.2.2.3.3h.9l.7-.3c.3-.1.5.2.5.4l-.4 1.2c0 .1-.2.2-.3.2h-1l-1.2-.3h-.2l-.5.2h-.3l-.7-.3h-.3l-.9.6c-.1.1-.1.2-.1.3l.1 1.1c0 .1-.1.3-.2.4l-.7.3c-.2.1-.3.4-.1.6l.5.5c.1.1.2.1.3.1l.9-.2h.2l.4.2c.1.1.4.3.7.5.2.1.4.1.5-.1.1-.1.1-.1.3-.2l.7-.1c.1 0 .1 0 .2-.1l.1-.1c.2-.2.5-.1.6.1l.4 1s0 .1.1.1l.4.5c.1.1.1.3 0 .5l-1 .9c-.1.1-.3.1-.5 0l-.9-.9s-.1 0-.1-.1l-1.3-.6h-2.3l-1.4.4c-.5.1-.8.5-1 .9l-.4 1.1c-.1.3-.1.7.1 1l.5 1.2c.2.5.7.8 1.2.8l1.3.1h.1l.7.4c.1.1.2.2.2.3l.1 1.3c0 .5.2.9.4 1.3l.6 1.2c0 .1.1.1.1.1l1 .8c.2.1.4.1.6-.1l.3-.5c0-.1.1-.1.1-.2l.8-1.9v-.1l.3-2.7v-.1l.5-1.1c.1-.1.2-.2.4-.2l1.9.2c.1 0 .2 0 .3-.1l.4-.4c.1-.1.1-.3 0-.5l-.9-1.2c-.2-.2 0-.5.2-.5l.3-.1c.1 0 .6 0 .7-.1h.1l.8.1c.2 0 .4.2.3.4l-.1 2.8v.2l.6 1.7c-1.9 4.5-6.5 7.7-11.8 7.7z" style="fill:#fff;fill-opacity:1" transform="translate(100.069 106.153) scale(1.04701)"/></g></svg>