<svg xmlns="http://www.w3.org/2000/svg" viewBox="0 0 512 512"><circle cx="256" cy="256" r="235.716" style="fill:#214478;stroke:#214478;stroke-width:40.5684;stroke-linecap:round;stroke-linejoin:round"/><path d="M17.15 1C10.76 1 4.78 5.41 3.36 11h-.27a1 1 0 0 0-.77.45C0 14.93 1.23 21.39 2.21 24.32a1 1 0 0 0 .94.68.92.92 0 0 0 .29 0l1.35 3.3A2.34 2.34 0 0 0 7 29.76a2.1 2.1 0 0 0 .56-.07l20.39-5.1a2.32 2.32 0 0 0 1.56-1.28A28.63 28.63 0 0 0 31.15 14c0-6.93-6.54-13-14-13zM3.75 13H4a1 1 0 0 0 .51-.07l11.09-.7a3.91 3.91 0 0 0 .79 4.65l-.54.18a1 1 0 0 0-.39.24l-2.82 2.82-8.82 2.64C3 19.87 2.48 15.44 3.75 13Zm15.42-1a2.34 2.34 0 1 1-.07 0zm8.48 10.47a.31.31 0 0 1-.22.18L7 27.75a.33.33 0 0 1-.39-.19l-1.23-3.18L13.44 22a1.12 1.12 0 0 0 .42-.25l2.83-2.84 2.7-.89a4.002 4.002 0 0 0-.24-8h-.06l-13.6.85C7 6.48 12 3 17.15 3c6.4 0 12 5.14 12 11a26.88 26.88 0 0 1-1.5 8.47z" data-name="Layer 2" style="fill:#fff" transform="translate(73.966 84.175) scale(10.75354)"/></svg>
