<svg xmlns="http://www.w3.org/2000/svg" viewBox="0 0 512 512"><circle cx="256" cy="256" r="235.716" style="fill:maroon;stroke:maroon;stroke-width:40.5684;stroke-linecap:round;stroke-linejoin:round"/><path fill-rule="evenodd" d="M359.81 243.239a47.1 47.1 0 1 1-47.1-47.1 47.11 47.11 0 0 1 47.1 47.1zm-20 0a27.1 27.1 0 1 1-27.1-27.1 27.1 27.1 0 0 1 27.1 27.1z" style="fill:#fff" transform="translate(-247.677 -133.79) scale(1.61167)"/><path fill-rule="evenodd" d="M292.39 141.099a34 34 0 0 0-29 16.33l-4.43 7.17h-17.94a34 34 0 0 0-34 34v97.89a34 34 0 0 0 34 34h144a34 34 0 0 0 34-34v-97.89a34 34 0 0 0-34-34h-17.94l-4.37-7.17a34 34 0 0 0-29.06-16.33zm-12 26.72a14 14 0 0 1 12-6.72h41.26a14 14 0 0 1 12 6.72l10.19 16.78h29.18a14 14 0 0 1 14 14v97.89a14 14 0 0 1-14 14h-144a14 14 0 0 1-14-14v-97.89a14 14 0 0 1 14-14h29.18z" style="fill:#fff;stroke-width:1.00020476;stroke-miterlimit:4;stroke-dasharray:none" transform="translate(-247.677 -133.79) scale(1.61167)"/></svg>