<svg xmlns="http://www.w3.org/2000/svg" fill="none" stroke="currentColor" stroke-linecap="round" stroke-linejoin="round" stroke-width="2" class="icon icon-tabler icons-tabler-outline icon-tabler-subtask" viewBox="0 0 512 512"><circle cx="256.843" cy="256.613" r="235.716" style="fill:#fff;stroke:#fff;stroke-width:40.5684;stroke-linecap:round;stroke-linejoin:round;stroke-opacity:1;fill-opacity:1"/><path d="M142.337 199.903h110.728m-147.637-73.819h73.818m-36.909 0v203.002a18.455 18.455 0 0 0 18.455 18.455h92.273m0-166.093a18.455 18.455 0 0 1 18.455-18.454h110.728a18.455 18.455 0 0 1 18.455 18.454v36.91a18.455 18.455 0 0 1-18.455 18.454H271.52a18.455 18.455 0 0 1-18.455-18.454zm0 147.638a18.455 18.455 0 0 1 18.455-18.455h110.728a18.455 18.455 0 0 1 18.455 18.455v36.91a18.455 18.455 0 0 1-18.455 18.454H271.52a18.455 18.455 0 0 1-18.455-18.455z" style="stroke-width:36.9094;stroke:#4d4d4d;fill:#fff;fill-opacity:1"/></svg>